<?xml version="1.0" encoding="UTF-8" standalone="no"?>
<svg
   xmlns:dc="http://purl.org/dc/elements/1.1/"
   xmlns:cc="http://creativecommons.org/ns#"
   xmlns:rdf="http://www.w3.org/1999/02/22-rdf-syntax-ns#"
   xmlns:svg="http://www.w3.org/2000/svg"
   xmlns="http://www.w3.org/2000/svg"
   viewBox="0 0 790.74664 643.37335"
   height="643.37335"
   width="790.74664"
   xml:space="preserve"
   id="svg2"
   version="1.1"><metadata
     id="metadata8"><rdf:RDF><cc:Work
         rdf:about=""><dc:format>image/svg+xml</dc:format><dc:type
           rdf:resource="http://purl.org/dc/dcmitype/StillImage" /></cc:Work></rdf:RDF></metadata><defs
     id="defs6" /><g
     transform="matrix(1.3333333,0,0,-1.3333333,0,643.37333)"
     id="g10"><g
       transform="scale(0.1)"
       id="g12"><g
         transform="scale(10)"
         id="g14"><text
           id="text18"
           style="font-variant:normal;font-weight:bold;font-size:70.91390228px;font-family:CaviarDreams;-inkscape-font-specification:CaviarDreams-Bold;writing-mode:lr-tb;fill:#231f20;fill-opacity:1;fill-rule:nonzero;stroke:none"
           transform="matrix(1,0,0,-1,25.9887,65.8492)"><tspan
             id="tspan16"
             y="0"
             x="0 56.855999 100.55379 118.1436 136.87601 176.315 220.01279 244.52791 283.75888 327.4567 371.15491">Celine Keet</tspan></text>
<text
           id="text22"
           style="font-variant:normal;font-weight:bold;font-size:33.75600052px;font-family:CaviarDreams;-inkscape-font-specification:CaviarDreams-Bold;writing-mode:lr-tb;fill:#231f20;fill-opacity:1;fill-rule:nonzero;stroke:none"
           transform="matrix(1,0,0,-1,103.9539,25.3429)"><tspan
             id="tspan20"
             y="0"
             x="0 22.684032 31.055519 39.42701 50.517971 72.241562 91.393875 110.16726 133.25905 144.92847 174.79468 195.59544 218.68726 227.60423 250.69606 274.06815 297.15994 312.12674 332.92749">Allround Mediamaker</tspan></text>
</g><path
         id="path24"
         style="fill:#4f48a6;fill-opacity:1;fill-rule:nonzero;stroke:none"
         d="m 2840.57,4397.57 c 103.79,16.43 196.07,19.47 270.28,7.06 129.61,-24.56 203.91,-92.83 195.41,-216.95 -11.2,-124.16 -129.5,-231.85 -253.46,-275.74 118.57,-49.65 258.31,-66.11 385.23,-26.42 -76.64,-154.28 -205.03,-268.48 -352.31,-339.57 319.75,143.45 544.16,466.66 464.2,791.18 -10.36,37.27 -23.68,72.19 -39.53,104.95 -120.73,28.73 -238.61,55.32 -349.46,66.23 -129.22,8.39 -245.36,-27.06 -320.36,-110.74" /><path
         id="path26"
         style="fill:#4f48a6;fill-opacity:1;fill-rule:nonzero;stroke:none"
         d="m 2371.64,2297.94 c 9.34,-17.59 16.48,-38.35 28.02,-53.83 l -31.01,51.37 c -0.94,-0.8 3.93,3.25 2.99,2.46" /><path
         id="path28"
         style="fill:#4f48a6;fill-opacity:1;fill-rule:nonzero;stroke:none"
         d="m 1136.85,2068.47 c -390.577,195.64 -355.858,823.25 192.2,1480.35 202.97,240.2 495.85,447.91 794.16,599.5 3.52,30.88 8.23,62.6 14.96,95.68 77.86,415.06 396.82,584.4 860.25,556.13 -335.34,69.12 -761.5,-6.52 -1124,-193.9 -336.26,-168.71 -528.67,-255.02 -824.7,-565.59 C -14.1094,2922.05 -88.9375,1697.53 638.641,1471.1 c 426.199,-130.09 1017.129,-3.46 1603.389,498.8 17.45,95.86 53.31,200.93 111.03,313.36 -464.77,-381.49 -972.04,-341.6 -1216.21,-214.79" /><path
         id="path30"
         style="fill:#55b0e6;fill-opacity:1;fill-rule:nonzero;stroke:none"
         d="m 3085.72,3545.95 c -120.88,-54.23 -255.31,-82.92 -392.18,-76.06 70.74,341.01 -4.66,-91.13 103.41,483.04 54.66,-70.52 157.04,-75.98 255.85,-40.99 -218.93,91.67 -365.4,296.83 -223.95,472.95 3.63,4.56 7.88,8.38 11.72,12.68 -208.97,-33.07 -465.03,-121.03 -717.36,-249.25 -73.39,-643.33 527.34,-812.43 962.51,-602.37" /><path
         id="path32"
         style="fill:#55b0e6;fill-opacity:1;fill-rule:nonzero;stroke:none"
         d="M 5838.84,4377.04 C 5333.08,4665.73 4502.9,3504.35 4017.85,3126.49 c 263.58,447.68 933.91,1576.79 1037.09,1655.39 l -513.25,41.83 c -111.85,-474.55 -827.51,-69.9 -1536.65,-23.83 -2.26,0.14 -4.38,0.11 -6.62,0.25 230.21,-47.45 417.62,-163.08 511.97,-358.05 294.59,-70.12 606.72,-153.45 879.19,-56.21 -247.82,-401.8 -176.41,-287.05 -579.69,-981.49 -268.43,-455.89 -520.2,-853.15 -749.07,-1094.13 -253.25,-273.15 -524.65,-240.39 -657.71,-61.8 l 47.02,-84.94 c -69.1,-70.37 -138.58,-134.06 -208.1,-193.61 -112.98,-620.7 543.84,-850.79 1018.84,-124.66 311.97,470.12 716.81,1254.02 1153.86,1089.18 62.32,-25.35 92.41,-87.02 68.25,-196.31 -44.44,-159.16 -190.7,-375.67 -357.5,-646.27 -180.68,-286.76 -62.85,-507.61 187.69,-523.88 250.55,-16.27 506.93,188.8 737.61,523.5 93.47,126.1 164.6,236.62 189.41,290.44 l -118.43,80.18 c -18.37,-20.12 -85.28,-130.91 -165.19,-245.12 -229.58,-317.7 -434.88,-261.72 -234.75,62.15 352.02,561.32 129.06,1002.23 -468.79,857.7 880.25,684.81 1360.43,1118.42 1605.76,825.3 127.62,192.12 62.2,366.94 -19.95,414.93" /><path
         id="path34"
         style="fill:#55b0e6;fill-opacity:1;fill-rule:nonzero;stroke:none"
         d="m 2796.95,3952.93 c -108.07,-574.17 -32.67,-142.03 -103.41,-483.04 136.87,-6.86 276.49,21.83 397.37,76.06 147.27,71.09 312.11,197 388.75,351.29 -126.93,-39.7 -308.29,-34.95 -426.86,14.7 -98.81,-34.99 -201.19,-29.53 -255.85,40.99" /><path
         id="path36"
         style="fill:#4f48a6;fill-opacity:1;fill-rule:nonzero;stroke:none"
         d="m 2108.17,4224 c -6.73,-33.08 -10.88,-59.95 -14.4,-90.84 252.33,128.23 545.29,232.5 754.26,265.57 75,83.68 184.28,115.02 313.5,106.63 110.86,-10.91 232.57,-43.95 353.31,-72.69 -70.81,194.57 -286.21,320.01 -516.42,367.46 -529.39,75.86 -812.39,-161.07 -890.25,-576.13" /><path
         id="path38"
         style="fill:#55b0e6;fill-opacity:1;fill-rule:nonzero;stroke:none"
         d="m 2450.13,2163.51 -47.02,84.94 c -11.54,15.49 -22.13,31.9 -31.47,49.49 -6.16,-5.22 -12.4,-9.6 -18.58,-14.68 -57.72,-112.43 -93.58,-217.5 -111.03,-313.36 69.52,59.55 139,123.24 208.1,193.61" /><path
         id="path40"
         style="fill:#55b0e6;fill-opacity:1;fill-rule:nonzero;stroke:none"
         d="m 37.5117,1216.77 c 133.1483,288.77 531.9493,123.01 531.9493,123.01 0,0 -236.606,71.63 -409.473,-124.19 -172.8669,-195.83 -9.121,-397.449 -9.121,-397.449 0,0 -241.5662,120.55 -113.3553,398.629" /><path
         id="path42"
         style="fill:#4f48a6;fill-opacity:1;fill-rule:nonzero;stroke:none"
         d="M 4755.87,325.52 C 4749.32,7.60156 4317.52,0.0195313 4317.52,0.0195313 c 0,0 245.51,28.9804687 325.62,277.6014687 80.12,248.617 -150.59,367.93 -150.59,367.93 0,0 269.62,-13.891 263.32,-320.031" /></g></g></svg>